<?xml version="1.0" standalone="no"?>
<!DOCTYPE svg PUBLIC "-//W3C//DTD SVG 20010904//EN"
 "http://www.w3.org/TR/2001/REC-SVG-20010904/DTD/svg10.dtd">
<svg version="1.0" xmlns="http://www.w3.org/2000/svg"
 width="256.000000pt" height="256.000000pt" viewBox="0 0 256.000000 256.000000"
 preserveAspectRatio="xMidYMid meet">

<g transform="translate(0.000000,256.000000) scale(0.100000,-0.100000)"
fill="#000000" stroke="none">
<path d="M0 1280 l0 -1280 1280 0 1280 0 0 1280 0 1280 -1280 0 -1280 0 0
-1280z m1464 623 c245 -140 251 -145 301 -223 37 -58 53 -99 87 -223 l40 -152
-12 -99 -13 -100 -165 -245 c-204 -303 -195 -290 -207 -291 -5 0 -154 42 -330
94 -229 67 -323 99 -332 112 -18 28 -163 382 -163 399 0 8 60 141 133 295
l133 281 179 119 c99 66 184 119 189 120 5 0 77 -39 160 -87z"/>
<path d="M1136 1833 l-159 -105 6 -67 c3 -36 17 -201 32 -366 14 -165 28 -306
30 -313 4 -10 44 -12 177 -10 l173 3 148 289 149 289 -7 88 -7 88 -183 106
c-100 58 -186 105 -191 104 -5 0 -80 -48 -168 -106z"/>
<path d="M827 1422 c-59 -125 -107 -230 -107 -234 0 -9 270 -191 275 -186 4 4
-44 565 -53 610 -7 36 -10 31 -115 -190z"/>
<path d="M1730 1617 c0 -19 4 -25 15 -21 8 4 15 10 15 14 0 4 -7 13 -15 20
-13 11 -15 8 -15 -13z"/>
<path d="M1748 1550 c-9 -6 -58 -92 -108 -192 -51 -101 -119 -233 -152 -295
l-59 -112 35 -147 c19 -80 37 -148 39 -150 2 -2 75 101 161 229 l158 232 14
90 c13 89 13 91 -17 205 -39 149 -39 150 -47 150 -4 0 -14 -5 -24 -10z"/>
<path d="M740 1106 c0 -2 25 -62 55 -134 30 -72 55 -136 55 -142 0 -20 17 -9
79 54 l63 64 -121 81 c-113 76 -131 86 -131 77z"/>
<path d="M966 861 c-37 -38 -64 -71 -60 -74 8 -5 98 -31 442 -132 61 -18 112
-31 112 -30 0 5 -52 233 -61 268 l-10 37 -177 0 -178 0 -68 -69z"/>
</g>
</svg>
